<svg width="26" height="26" viewBox="0 0 26 26" fill="none" xmlns="http://www.w3.org/2000/svg">
<mask id="mask0_48_1870" style="mask-type:alpha" maskUnits="userSpaceOnUse" x="0" y="0" width="26" height="26">
<rect width="26" height="26" fill="white"/>
</mask>
<g mask="url(#mask0_48_1870)">
<path fill-rule="evenodd" clip-rule="evenodd" d="M25.1339 12.1952C25.1339 6.90473 19.691 2.59961 13.0005 2.59961C6.31101 2.59961 0.867188 6.90473 0.867188 12.1952C0.867188 16.9389 5.18362 20.9119 11.0147 21.6628C11.41 21.7455 11.9469 21.917 12.0834 22.2461C12.2058 22.5447 12.1633 23.0127 12.1229 23.3152L11.95 24.3272C11.8964 24.6258 11.7053 25.4959 13.0005 24.9648C14.2958 24.4327 19.9883 20.9553 22.5333 18.0996C24.2916 16.2205 25.1339 14.3128 25.1339 12.1952ZM5.93488 9.63818C6.06531 9.63818 6.17148 9.74164 6.17148 9.86876V13.961H8.48389C8.61432 13.961 8.71948 14.0635 8.71948 14.1906V15.0203C8.71948 15.1474 8.61432 15.2509 8.48389 15.2509H5.08352C5.01982 15.2509 4.9632 15.2263 4.92073 15.1869L4.91972 15.1859L4.9177 15.1839L4.91669 15.1829L4.91365 15.18C4.87321 15.1386 4.84793 15.0824 4.84793 15.0213V9.86876C4.84793 9.74164 4.95309 9.63818 5.08352 9.63818H5.93488ZM21.0935 9.63818C21.2239 9.63818 21.329 9.74164 21.329 9.86876V10.6984C21.329 10.8256 21.2239 10.929 21.0935 10.929H18.781V11.7991H21.0935C21.2239 11.7991 21.329 11.9026 21.329 12.0297V12.8594C21.329 12.9865 21.2239 13.09 21.0935 13.09H18.781V13.961H21.0935C21.2239 13.961 21.329 14.0645 21.329 14.1906V15.0203C21.329 15.1474 21.2239 15.2509 21.0935 15.2509H17.6931C17.6294 15.2509 17.5718 15.2263 17.5293 15.1869L17.5263 15.1829L17.5232 15.18C17.4828 15.1386 17.4565 15.0824 17.4565 15.0213V9.86876C17.4565 9.80766 17.4818 9.7515 17.5222 9.71011L17.5263 9.70617L17.5293 9.70321C17.5718 9.6638 17.6294 9.63818 17.6931 9.63818H21.0935ZM10.5354 9.63916C10.6659 9.63916 10.772 9.74164 10.772 9.86876V15.0213C10.772 15.1474 10.6659 15.2509 10.5354 15.2509H9.68408C9.55364 15.2509 9.44748 15.1474 9.44748 15.0213V9.86876C9.44748 9.74164 9.55364 9.63916 9.68408 9.63916H10.5354ZM12.6861 9.63916H12.6942L12.7063 9.64015L12.7194 9.64113L12.7295 9.64212L12.7427 9.64508L12.7508 9.64803L12.7649 9.65197L12.773 9.65493L12.7862 9.66084L12.7932 9.6638L12.8064 9.6707L12.8135 9.67464L12.8256 9.6835L12.8317 9.68745L12.8448 9.69829L12.8489 9.70223L12.863 9.71602L12.865 9.71799L12.8832 9.74066L15.3059 12.9293V9.86876C15.3059 9.74164 15.412 9.63916 15.5425 9.63916H16.3928C16.5242 9.63916 16.6294 9.74164 16.6294 9.86876V15.0213C16.6294 15.1474 16.5242 15.2509 16.3928 15.2509H15.5425L15.4818 15.243L15.4777 15.242L15.4626 15.2371L15.4555 15.2341L15.4434 15.2302L15.4322 15.2243L15.4252 15.2213L15.411 15.2125L15.409 15.2105L15.3483 15.1533L12.9227 11.9607V15.0213C12.9227 15.1474 12.8175 15.2509 12.6861 15.2509H11.8357C11.7053 15.2509 11.5991 15.1474 11.5991 15.0213V9.86876C11.5991 9.74164 11.7053 9.63916 11.8357 9.63916H12.6861Z" fill="#06C755"/>
</g>
</svg>
