<svg width="26" height="26" viewBox="0 0 26 26" fill="none" xmlns="http://www.w3.org/2000/svg">
<mask id="mask0_48_1851" style="mask-type:alpha" maskUnits="userSpaceOnUse" x="0" y="0" width="26" height="26">
<rect width="26" height="26" fill="white"/>
</mask>
<g mask="url(#mask0_48_1851)">
</g>
<g clip-path="url(#clip0_48_1851)">
<path d="M9.94043 10.9181V9.922C9.59594 9.87671 9.24555 9.84814 8.88842 9.84814C4.58382 9.84814 1.08203 13.2375 1.08203 17.4033C1.08203 19.9593 2.40179 22.2212 4.41473 23.589C3.11522 22.2392 2.34402 20.4306 2.34402 18.4451C2.34402 14.3392 5.72142 11.014 9.94085 10.9185L9.94043 10.9181Z" fill="#25F4EE"/>
<path d="M10.1239 21.9199C12.0445 21.9199 13.6384 20.4167 13.7096 18.5743L13.7155 2.14966L16.7948 2.12436C16.7303 1.7865 16.6945 1.43883 16.6945 1.08301H12.4531L12.4464 17.5329C12.3751 19.3749 10.8083 20.8533 8.88808 20.8533C8.29102 20.8533 7.72897 20.7088 7.23438 20.4567C7.88245 21.3258 8.93488 21.9195 10.1243 21.9195L10.1239 21.9199Z" fill="#25F4EE"/>
<path d="M22.5962 7.7351V6.79331C21.4114 6.79331 20.3083 6.45258 19.3828 5.86865C20.2067 6.78433 21.3258 7.4719 22.5962 7.7351Z" fill="#25F4EE"/>
<path d="M19.3824 5.86883C18.4796 4.86542 17.9311 3.55638 17.9311 2.12451H16.7947C17.0941 3.68859 18.0529 5.03027 19.382 5.86883H19.3824Z" fill="#FE2C55"/>
<path d="M8.88772 13.9524C6.922 13.9524 5.32227 15.5002 5.32227 17.4029C5.32227 18.7279 6.09894 19.879 7.23359 20.4568C6.81068 19.8896 6.55854 19.1959 6.55854 18.4443C6.55854 16.5415 8.15785 14.9938 10.124 14.9938C10.4908 14.9938 10.8429 15.0525 11.176 15.1533V10.963C10.8315 10.9177 10.4811 10.8892 10.124 10.8892C10.062 10.8892 10.0013 10.8924 9.93973 10.8936V14.1116C9.60663 14.0108 9.25455 13.952 8.88772 13.952V13.9524Z" fill="#FE2C55"/>
<path d="M22.5966 7.70801V10.8982C20.3973 10.8982 18.3595 10.2171 16.6961 9.06193V17.4034C16.6961 21.5692 13.1943 24.9581 8.8897 24.9581C7.2263 24.9581 5.68391 24.4505 4.41602 23.5887C5.84203 25.0704 7.87353 25.9995 10.126 25.9995C14.4306 25.9995 17.9324 22.6106 17.9324 18.4448V10.1033C19.5958 11.2589 21.634 11.9395 23.8329 11.9395V7.83491C23.4087 7.83491 22.9955 7.79043 22.5966 7.70801Z" fill="#FE2C55"/>
<path d="M16.6944 17.4033V9.06186C18.3578 10.2175 20.3961 10.8981 22.595 10.8981V7.70793C21.3245 7.44474 20.2055 6.7845 19.3816 5.86883C18.0526 5.03027 17.0937 3.68859 16.7944 2.12451H13.6894L13.6826 18.5744C13.6113 20.4164 12.0449 21.8948 10.1243 21.8948C8.93485 21.8948 7.88242 21.326 7.23435 20.4568C6.0997 19.879 5.32302 18.7279 5.32302 17.4029C5.32302 15.5002 6.92233 13.9524 8.88847 13.9524C9.25531 13.9524 9.60738 14.0112 9.94048 14.112V10.894C5.72106 10.9895 2.31836 14.3384 2.31836 18.4447C2.31836 20.4307 3.11569 22.2388 4.41479 23.5886C5.68269 24.45 7.22507 24.9581 8.88847 24.9581C13.1931 24.9581 16.6949 21.5692 16.6949 17.4033H16.6944Z" fill="black"/>
</g>
<defs>
<clipPath id="clip0_48_1851">
<rect width="22.75" height="24.9167" fill="white" transform="translate(1.08203 1.08301)"/>
</clipPath>
</defs>
</svg>
